# xmcd CD database file
#
# Track frame offsets:
#	150
#	25446
#	40856
#	60586
#	74131
#	85548
#	100288
#	111692
#	138510
#	162516
#	174374
#	184970
#	202846
#	215949
#	229289
#	257989
#	276219
#	291898
#
# Disc length: 4069 seconds
#
# Revision: 0
# Processed by: cddbd v1.5.1PL2 Copyright (c) Steve Scherf et al.
# Submitted via: CDex 1.51
#
DISCID=210fe312
DTITLE=Various Artist - Jazz Groups CD1
DYEAR=1900
DGENRE=Jazz
TTITLE0=Charlie Mingus - Purple Heart
TTITLE1=Red Norvo - Night and Day
TTITLE2=The Adderley - Chasm
TTITLE3=Charlie Parker - Cheryl
TTITLE4=Milt Jackson - Yesterdays
TTITLE5=MJQ - Moving Nicely
TTITLE6=MJQ - Hearth and Soul
TTITLE7=Herbie Mann - Yardbird Suite
TTITLE8=Curtis Fuller - Five Spot After Dark
TTITLE9=Shelley Manne - Slightly Brightly
TTITLE10=Shelley Manne - It Don't Mean A Thing
TTITLE11=Art Pepper - Deep Purple
TTITLE12=Slam Stewart - I'm In The Mood For Love
TTITLE13=Milt Jackson - Autumn Breeze
TTITLE14=The Adderley Brothers - Willow Weep For Me
TTITLE15=Stephane Grappelli - Honeysuckle Rose
TTITLE16=Red Norvo - Zing!Went The Strings Of My Hearth
TTITLE17=Stephane Grappelli - Do You Know What It Means To Miss New Orleans
EXTD=
EXTT0=
EXTT1=
EXTT2=
EXTT3=
EXTT4=
EXTT5=
EXTT6=
EXTT7=
EXTT8=
EXTT9=
EXTT10=
EXTT11=
EXTT12=
EXTT13=
EXTT14=
EXTT15=
EXTT16=
EXTT17=
PLAYORDER=
